<svg xmlns="http://www.w3.org/2000/svg" width="157" height="18" viewBox="0 0 157 18">
  <path d="M58.022,56.126 C59.912,56.126 61.4765,55.6255 62.7155,54.6245 C63.9545,53.6235 64.756,52.283 65.12,50.603 L65.12,50.603 L61.319,50.603 C61.039,51.275 60.6085,51.807 60.0275,52.199 C59.4465,52.591 58.757,52.787 57.959,52.787 C56.909,52.787 56.062,52.4055 55.418,51.6425 C54.774,50.8795 54.452,49.854 54.452,48.566 C54.452,47.278 54.774,46.249 55.418,45.479 C56.062,44.709 56.909,44.324 57.959,44.324 C58.757,44.324 59.4465,44.52 60.0275,44.912 C60.6085,45.304 61.039,45.843 61.319,46.529 L61.319,46.529 L65.12,46.529 C64.756,44.835 63.9545,43.491 62.7155,42.497 C61.4765,41.503 59.912,41.006 58.022,41.006 C56.58,41.006 55.313,41.3245 54.221,41.9615 C53.129,42.5985 52.2855,43.491 51.6905,44.639 C51.0955,45.787 50.798,47.096 50.798,48.566 C50.798,50.036 51.0955,51.345 51.6905,52.493 C52.2855,53.641 53.129,54.5335 54.221,55.1705 C55.313,55.8075 56.58,56.126 58.022,56.126 Z M71.588,56.147 C72.484,56.147 73.254,55.944 73.898,55.538 C74.542,55.132 75.018,54.579 75.326,53.879 L75.326,53.879 L75.326,56 L78.896,56 L78.896,44.282 L75.326,44.282 L75.326,46.403 C75.018,45.703 74.542,45.15 73.898,44.744 C73.254,44.338 72.484,44.135 71.588,44.135 C70.622,44.135 69.7575,44.3765 68.9945,44.8595 C68.2315,45.3425 67.6295,46.0355 67.1885,46.9385 C66.7475,47.8415 66.527,48.909 66.527,50.141 C66.527,51.359 66.7475,52.423 67.1885,53.333 C67.6295,54.243 68.2315,54.9395 68.9945,55.4225 C69.7575,55.9055 70.622,56.147 71.588,56.147 Z M72.743,52.997 C71.973,52.997 71.3535,52.745 70.8845,52.241 C70.4155,51.737 70.181,51.037 70.181,50.141 C70.181,49.245 70.4155,48.545 70.8845,48.041 C71.3535,47.537 71.973,47.285 72.743,47.285 C73.499,47.285 74.1185,47.5405 74.6015,48.0515 C75.0845,48.5625 75.326,49.259 75.326,50.141 C75.326,51.009 75.0845,51.702 74.6015,52.22 C74.1185,52.738 73.499,52.997 72.743,52.997 Z M84.965,56 L84.965,50.666 C84.965,49.7 85.2275,49.014 85.7525,48.608 C86.2775,48.202 87.016,47.999 87.968,47.999 L87.968,47.999 L88.997,47.999 L88.997,44.156 C88.171,44.156 87.4045,44.366 86.6975,44.786 C85.9905,45.206 85.413,45.773 84.965,46.487 L84.965,46.487 L84.965,44.282 L81.374,44.282 L81.374,56 L84.965,56 Z M95.99,56.147 C97.152,56.147 98.1915,55.9055 99.1085,55.4225 C100.0255,54.9395 100.7465,54.243 101.2715,53.333 C101.7965,52.423 102.059,51.359 102.059,50.141 C102.059,48.923 101.7965,47.859 101.2715,46.949 C100.7465,46.039 100.0255,45.3425 99.1085,44.8595 C98.1915,44.3765 97.152,44.135 95.99,44.135 C94.828,44.135 93.785,44.3765 92.861,44.8595 C91.937,45.3425 91.2125,46.039 90.6875,46.949 C90.1625,47.859 89.9,48.923 89.9,50.141 C89.9,51.359 90.1625,52.423 90.6875,53.333 C91.2125,54.243 91.937,54.9395 92.861,55.4225 C93.785,55.9055 94.828,56.147 95.99,56.147 Z M95.99,53.018 C95.304,53.018 94.7265,52.773 94.2575,52.283 C93.7885,51.793 93.554,51.079 93.554,50.141 C93.554,49.203 93.7885,48.4855 94.2575,47.9885 C94.7265,47.4915 95.304,47.243 95.99,47.243 C96.676,47.243 97.25,47.4915 97.712,47.9885 C98.174,48.4855 98.405,49.203 98.405,50.141 C98.405,51.079 98.174,51.793 97.712,52.283 C97.25,52.773 96.676,53.018 95.99,53.018 Z M107.519,56 L107.519,40.46 L103.928,40.46 L103.928,56 L107.519,56 Z M111.803,42.854 C112.447,42.854 112.965,42.6755 113.357,42.3185 C113.749,41.9615 113.945,41.517 113.945,40.985 C113.945,40.439 113.749,39.9875 113.357,39.6305 C112.965,39.2735 112.447,39.095 111.803,39.095 C111.159,39.095 110.641,39.2735 110.249,39.6305 C109.857,39.9875 109.661,40.439 109.661,40.985 C109.661,41.517 109.857,41.9615 110.249,42.3185 C110.641,42.6755 111.159,42.854 111.803,42.854 Z M113.588,56 L113.588,44.282 L109.997,44.282 L109.997,56 L113.588,56 Z M119.657,56 L119.657,49.784 C119.657,48.93 119.8705,48.272 120.2975,47.81 C120.7245,47.348 121.302,47.117 122.03,47.117 C122.716,47.117 123.2655,47.3375 123.6785,47.7785 C124.0915,48.2195 124.298,48.832 124.298,49.616 L124.298,49.616 L124.298,56 L127.889,56 L127.889,49.196 C127.889,47.628 127.4935,46.396 126.7025,45.5 C125.9115,44.604 124.844,44.156 123.5,44.156 C122.604,44.156 121.8235,44.359 121.1585,44.765 C120.4935,45.171 119.993,45.724 119.657,46.424 L119.657,46.424 L119.657,44.282 L116.066,44.282 L116.066,56 L119.657,56 Z M135.554,56.147 C136.534,56.147 137.423,55.9615 138.221,55.5905 C139.019,55.2195 139.677,54.7085 140.195,54.0575 C140.713,53.4065 141.049,52.668 141.203,51.842 L141.203,51.842 L137.402,51.842 C137.29,52.262 137.059,52.605 136.709,52.871 C136.359,53.137 135.918,53.27 135.386,53.27 C134.756,53.27 134.238,53.0775 133.832,52.6925 C133.426,52.3075 133.202,51.674 133.16,50.792 L133.16,50.792 L141.287,50.792 C141.357,50.442 141.392,50.12 141.392,49.826 C141.392,48.706 141.1505,47.7155 140.6675,46.8545 C140.1845,45.9935 139.502,45.325 138.62,44.849 C137.738,44.373 136.716,44.135 135.554,44.135 C134.406,44.135 133.384,44.3765 132.488,44.8595 C131.592,45.3425 130.8955,46.0355 130.3985,46.9385 C129.9015,47.8415 129.653,48.909 129.653,50.141 C129.653,51.359 129.905,52.423 130.409,53.333 C130.913,54.243 131.6095,54.9395 132.4985,55.4225 C133.3875,55.9055 134.406,56.147 135.554,56.147 Z M137.759,49.28 L133.181,49.28 C133.237,48.524 133.482,47.95 133.916,47.558 C134.35,47.166 134.896,46.97 135.554,46.97 C136.184,46.97 136.7125,47.1625 137.1395,47.5475 C137.5665,47.9325 137.773,48.51 137.759,49.28 L137.759,49.28 Z M153.068,56 C154.65,56 156.0255,55.685 157.1945,55.055 C158.3635,54.425 159.2595,53.5465 159.8825,52.4195 C160.5055,51.2925 160.817,50.001 160.817,48.545 C160.817,47.089 160.5055,45.801 159.8825,44.681 C159.2595,43.561 158.367,42.693 157.205,42.077 C156.043,41.461 154.664,41.153 153.068,41.153 L153.068,41.153 L147.461,41.153 L147.461,56 L153.068,56 Z M152.753,52.787 L151.052,52.787 L151.052,44.303 L152.753,44.303 C154.153,44.303 155.2415,44.674 156.0185,45.416 C156.7955,46.158 157.184,47.201 157.184,48.545 C157.184,49.889 156.7955,50.932 156.0185,51.674 C155.2415,52.416 154.153,52.787 152.753,52.787 L152.753,52.787 Z M167.306,56.147 C168.202,56.147 168.972,55.944 169.616,55.538 C170.26,55.132 170.736,54.579 171.044,53.879 L171.044,53.879 L171.044,56 L174.614,56 L174.614,44.282 L171.044,44.282 L171.044,46.403 C170.736,45.703 170.26,45.15 169.616,44.744 C168.972,44.338 168.202,44.135 167.306,44.135 C166.34,44.135 165.4755,44.3765 164.7125,44.8595 C163.9495,45.3425 163.3475,46.0355 162.9065,46.9385 C162.4655,47.8415 162.245,48.909 162.245,50.141 C162.245,51.359 162.4655,52.423 162.9065,53.333 C163.3475,54.243 163.9495,54.9395 164.7125,55.4225 C165.4755,55.9055 166.34,56.147 167.306,56.147 Z M168.461,52.997 C167.691,52.997 167.0715,52.745 166.6025,52.241 C166.1335,51.737 165.899,51.037 165.899,50.141 C165.899,49.245 166.1335,48.545 166.6025,48.041 C167.0715,47.537 167.691,47.285 168.461,47.285 C169.217,47.285 169.8365,47.5405 170.3195,48.0515 C170.8025,48.5625 171.044,49.259 171.044,50.141 C171.044,51.009 170.8025,51.702 170.3195,52.22 C169.8365,52.738 169.217,52.997 168.461,52.997 Z M182.195,56.147 C183.133,56.147 183.945,56 184.631,55.706 C185.317,55.412 185.842,55.006 186.206,54.488 C186.57,53.97 186.752,53.375 186.752,52.703 C186.752,51.877 186.542,51.219 186.122,50.729 C185.702,50.239 185.205,49.8855 184.631,49.6685 C184.057,49.4515 183.322,49.238 182.426,49.028 C181.6,48.846 180.9945,48.664 180.6095,48.482 C180.2245,48.3 180.032,48.027 180.032,47.663 C180.032,47.341 180.137,47.0925 180.347,46.9175 C180.557,46.7425 180.865,46.655 181.271,46.655 C181.789,46.655 182.2195,46.7915 182.5625,47.0645 C182.9055,47.3375 183.126,47.712 183.224,48.188 L183.224,48.188 L186.584,48.188 C186.36,46.97 185.8035,45.99 184.9145,45.248 C184.0255,44.506 182.839,44.135 181.355,44.135 C179.899,44.135 178.772,44.4605 177.974,45.1115 C177.176,45.7625 176.777,46.613 176.777,47.663 C176.777,48.475 176.98,49.1155 177.386,49.5845 C177.792,50.0535 178.275,50.393 178.835,50.603 C179.395,50.813 180.109,51.009 180.977,51.191 C181.845,51.387 182.4715,51.5725 182.8565,51.7475 C183.2415,51.9225 183.434,52.213 183.434,52.619 C183.434,52.927 183.329,53.1755 183.119,53.3645 C182.909,53.5535 182.601,53.648 182.195,53.648 C181.607,53.648 181.1275,53.515 180.7565,53.249 C180.3855,52.983 180.172,52.598 180.116,52.094 L180.116,52.094 L176.651,52.094 C176.861,53.396 177.442,54.397 178.394,55.097 C179.346,55.797 180.613,56.147 182.195,56.147 Z M192.338,56 L192.338,49.784 C192.338,48.93 192.5515,48.272 192.9785,47.81 C193.4055,47.348 193.983,47.117 194.711,47.117 C195.397,47.117 195.9465,47.3375 196.3595,47.7785 C196.7725,48.2195 196.979,48.832 196.979,49.616 L196.979,49.616 L196.979,56 L200.57,56 L200.57,49.196 C200.57,47.628 200.1745,46.396 199.3835,45.5 C198.5925,44.604 197.525,44.156 196.181,44.156 C195.285,44.156 194.5045,44.359 193.8395,44.765 C193.1745,45.171 192.674,45.724 192.338,46.424 L192.338,46.424 L192.338,40.46 L188.747,40.46 L188.747,56 L192.338,56 Z M206.03,56 L206.03,52.409 L202.313,52.409 L202.313,56 L206.03,56 Z" transform="translate(-50 -39)"/>
</svg>
